# xmcd
#
# Track frame offsets:
#       150
#       18727
#       37159
#       55956
#       73125
#       98744
#       116252
#       139567
#       158274
#       181407
#       200872
#
# Disc length: 3029 seconds
#
# Revision: 1
# Processed by: cddbd v1.5PL3 Copyright (c) Steve Scherf et al.
# Submitted via: MusiCat 1.1
#
DISCID=980bd30b
DTITLE=Madonna - The Best of by Snooker
DYEAR=1900
DGENRE=
TTITLE0=Express yourself
TTITLE1=Holiday In
TTITLE2=Into the Groove
TTITLE3=La isla bonita
TTITLE4=Like a prayer
TTITLE5=Material girl
TTITLE6=Frozen
TTITLE7=Papa don't preach
TTITLE8=Substitute for love
TTITLE9=True blue
TTITLE10=Like a prayer (Remix)
EXTD=\n\n
EXTT0=
EXTT1=
EXTT2=
EXTT3=
EXTT4=
EXTT5=
EXTT6=
EXTT7=
EXTT8=
EXTT9=
EXTT10=
PLAYORDER=
